<svg width="42" height="42" viewBox="0 0 42 42" fill="none" xmlns="http://www.w3.org/2000/svg">
<path fill-rule="evenodd" clip-rule="evenodd" d="M38.7404 26.9135V1.78295L37.2621 0.304688H8.40636C7.72828 0.31219 7.05717 0.442407 6.42548 0.689037C5.78874 0.972003 5.21493 1.37928 4.73769 1.88698C4.26046 2.39467 3.88942 2.99256 3.64634 3.64557C3.40451 4.22711 3.27413 4.84892 3.26199 5.47862V33.5657C3.25489 34.2452 3.38564 34.919 3.64634 35.5466C4.17009 36.81 5.16766 37.8182 6.42548 38.3553C7.05717 38.6019 7.72828 38.7321 8.40636 38.7396H9.17506V35.7831H8.40636C8.11136 35.784 7.81939 35.7236 7.54897 35.6057C7.0137 35.3837 6.58838 34.9583 6.36635 34.4231C6.27189 34.1469 6.22199 33.8575 6.21853 33.5657V32.0874C6.22199 31.7956 6.27189 31.5062 6.36635 31.23C6.58838 30.6948 7.0137 30.2694 7.54897 30.0474C7.81442 29.9317 8.10063 29.8713 8.3901 29.87H9.17513L35.7839 29.87V35.7831H23.9577V38.7396H37.2621L38.7404 37.2614V29.87V26.9135ZM6.21853 27.4161L6.2186 27.4161V5.47315L6.21853 5.47862V27.4161ZM9.17513 3.26123V26.9135H35.7839V3.26122H8.40636L8.39048 3.26123H9.17513ZM12.1317 6.21726H15.0882V9.17379H12.1317V6.21726ZM12.1317 12.1303H15.0882V15.0869H12.1317V12.1303ZM15.0882 18.0434H12.1317V21H15.0882V18.0434ZM16.5665 37.2314L12.9595 41.6957H12.1317V32.8261H21.0013V41.6957H20.1734L16.5665 37.2314Z" fill="#4F4F4F"/>
</svg>
