<svg width="42" height="42" viewBox="0 0 42 42" fill="none" xmlns="http://www.w3.org/2000/svg">
<path d="M11.3783 11.9176H3.42528L2 13.3429V27.5957L3.42528 29.0209H11.3783L22.3815 39.9956L24.8044 39.0549V1.99769L22.3815 1L11.3783 11.9176ZM21.9539 35.6057L12.9746 26.655L11.9769 26.1704H4.85055V14.7682H11.9769L12.9746 14.3406L21.9539 5.44686V35.6057Z" fill="#4F4F4F"/>
<path fill-rule="evenodd" clip-rule="evenodd" d="M38.593 8.04108L31.1815 12.0319L29.8301 9.52202L37.2415 5.53125L38.593 8.04108Z" fill="#4F4F4F"/>
<path fill-rule="evenodd" clip-rule="evenodd" d="M40.9882 21.8945H32.7871V19.0439H40.9882V21.8945Z" fill="#4F4F4F"/>
<path fill-rule="evenodd" clip-rule="evenodd" d="M36.6284 35.3827L29.7871 31.3919L31.2234 28.9297L38.0647 32.9205L36.6284 35.3827Z" fill="#4F4F4F"/>
</svg>
