<svg width="18" height="18" viewBox="0 0 18 18" fill="none" xmlns="http://www.w3.org/2000/svg">
<path d="M0.632812 9.721L9.4875 17.4062C9.55547 17.4647 9.64219 17.4976 9.73359 17.4976H11.8078C11.9812 17.4976 12.0609 17.2819 11.9297 17.1694L3.72187 10.0444L17.4375 10.0444C17.5406 10.0444 17.625 9.96006 17.625 9.85693V8.45068C17.625 8.34756 17.5406 8.26318 17.4375 8.26318L3.72422 8.26318L11.932 1.13818C12.0633 1.02334 11.9836 0.810059 11.8102 0.810059H9.66562C9.62109 0.810059 9.57656 0.826466 9.54375 0.856934L0.632812 8.58662C0.551676 8.65718 0.48662 8.74432 0.442038 8.84217C0.397457 8.94001 0.374388 9.04628 0.374388 9.15381C0.374388 9.26133 0.397457 9.36761 0.442038 9.46545C0.48662 9.5633 0.551676 9.65044 0.632812 9.721Z" fill="#F2F2F2"/>
</svg>
