<svg width="95" height="53" viewBox="0 0 95 53" fill="none" xmlns="http://www.w3.org/2000/svg">
<path fill-rule="evenodd" clip-rule="evenodd" d="M94.1797 30.9517H0.179688V29.9517H94.1797V30.9517Z" fill="#333333"/>
<path d="M0.8745 41.5268C0.7095 41.4828 0.5555 41.4278 0.4125 41.3618C0.2805 41.2958 0.143 41.2188 0 41.1308V40.7018H3.4485V41.1143C3.2175 41.2683 2.904 41.4058 2.508 41.5268L4.62 46.4108L4.9335 47.4338H4.9665L5.214 46.3943L6.7815 41.5268C6.4515 41.4608 6.149 41.3288 5.874 41.1308V40.7018H8.6955V41.1308C8.4645 41.2848 8.151 41.4168 7.755 41.5268L5.181 48.9518C4.917 49.6558 4.664 50.2223 4.422 50.6513C4.191 51.0913 3.9545 51.4378 3.7125 51.6908C3.4815 51.9438 3.2395 52.1253 2.9865 52.2353C2.7445 52.3563 2.4805 52.4443 2.1945 52.4993C2.0735 52.2903 1.9635 52.0593 1.8645 51.8063C1.7765 51.5533 1.6995 51.3113 1.6335 51.0803L1.848 50.6843H3.564C3.63 50.5963 3.685 50.5083 3.729 50.4203C3.784 50.3433 3.839 50.2443 3.894 50.1233C3.949 50.0023 4.0095 49.8483 4.0755 49.6613C4.1415 49.4743 4.2185 49.2378 4.3065 48.9518L0.8745 41.5268Z" fill="#333333"/>
<path d="M15.5576 47.7968C15.3596 48.1818 15.0351 48.5063 14.5841 48.7703C14.1441 49.0233 13.6271 49.1498 13.0331 49.1498C12.3841 49.1498 11.8176 49.0508 11.3336 48.8528C10.8606 48.6438 10.4646 48.3523 10.1456 47.9783C9.82657 47.5933 9.58457 47.1368 9.41957 46.6088C9.26557 46.0698 9.18857 45.4758 9.18857 44.8268C9.18857 43.4298 9.52957 42.3628 10.2116 41.6258C10.8936 40.8778 11.8231 40.5038 13.0001 40.5038C13.5391 40.5038 14.0176 40.5533 14.4356 40.6523C14.8646 40.7403 15.2276 40.8613 15.5246 41.0153C15.4916 41.3783 15.4311 41.7853 15.3431 42.2363C15.2551 42.6873 15.1451 43.0613 15.0131 43.3583H14.5676L13.8746 41.3948C13.7976 41.3398 13.7096 41.3013 13.6106 41.2793C13.5116 41.2463 13.3466 41.2298 13.1156 41.2298C12.3676 41.2298 11.7901 41.5048 11.3831 42.0548C10.9761 42.5938 10.7726 43.5123 10.7726 44.8103C10.7726 45.2283 10.8276 45.6353 10.9376 46.0313C11.0586 46.4273 11.2346 46.7848 11.4656 47.1038C11.7076 47.4118 12.0046 47.6593 12.3566 47.8463C12.7196 48.0333 13.1376 48.1268 13.6106 48.1268C13.9956 48.1268 14.3311 48.0718 14.6171 47.9618C14.9031 47.8518 15.1451 47.7198 15.3431 47.5658L15.5576 47.7968Z" fill="#333333"/>
<path d="M20.3891 48.9518H16.8416V48.5393C16.9956 48.4513 17.1661 48.3798 17.3531 48.3248C17.5401 48.2588 17.7326 48.1983 17.9306 48.1433V41.5268C17.7326 41.4718 17.5401 41.4168 17.3531 41.3618C17.1661 41.2958 16.9956 41.2188 16.8416 41.1308V40.7018H20.3891V41.1308C20.1361 41.2848 19.8116 41.4168 19.4156 41.5268V44.4143H23.0786V41.5268C22.6936 41.4608 22.3636 41.3288 22.0886 41.1308V40.7018H25.6526V41.1308C25.3556 41.3178 24.9926 41.4498 24.5636 41.5268V48.1433C24.7616 48.1873 24.9541 48.2368 25.1411 48.2918C25.3281 48.3468 25.4986 48.4293 25.6526 48.5393V48.9518H22.0886V48.5393C22.3636 48.3413 22.6936 48.2093 23.0786 48.1433V45.1403H19.4156V48.1433C19.6356 48.1873 19.8226 48.2423 19.9766 48.3083C20.1306 48.3743 20.2681 48.4513 20.3891 48.5393V48.9518Z" fill="#333333"/>
<path d="M26.9776 44.8268C26.9776 44.1338 27.0656 43.5233 27.2416 42.9953C27.4286 42.4563 27.6926 42.0053 28.0336 41.6423C28.3746 41.2683 28.7816 40.9878 29.2546 40.8008C29.7386 40.6028 30.2721 40.5038 30.8551 40.5038C31.5371 40.5038 32.1256 40.6083 32.6206 40.8173C33.1156 41.0263 33.5171 41.3233 33.8251 41.7083C34.1441 42.0823 34.3751 42.5333 34.5181 43.0613C34.6721 43.5893 34.7491 44.1778 34.7491 44.8268C34.7491 46.2128 34.3971 47.2798 33.6931 48.0278C32.9891 48.7758 32.0431 49.1498 30.8551 49.1498C30.1951 49.1498 29.6231 49.0508 29.1391 48.8528C28.6551 48.6438 28.2536 48.3523 27.9346 47.9783C27.6156 47.5933 27.3736 47.1368 27.2086 46.6088C27.0546 46.0698 26.9776 45.4758 26.9776 44.8268ZM28.5616 44.8268C28.5616 45.3218 28.6056 45.7893 28.6936 46.2293C28.7926 46.6693 28.9411 47.0543 29.1391 47.3843C29.3481 47.7033 29.6176 47.9563 29.9476 48.1433C30.2776 48.3303 30.6736 48.4238 31.1356 48.4238C31.7296 48.4238 32.2136 48.1323 32.5876 47.5493C32.9726 46.9663 33.1651 46.0588 33.1651 44.8268C33.1651 44.3208 33.1156 43.8533 33.0166 43.4243C32.9286 42.9843 32.7856 42.6048 32.5876 42.2858C32.3896 41.9558 32.1366 41.6973 31.8286 41.5103C31.5206 41.3233 31.1521 41.2298 30.7231 41.2298C30.0741 41.2298 29.5516 41.5213 29.1556 42.1043C28.7596 42.6873 28.5616 43.5948 28.5616 44.8268Z" fill="#333333"/>
<path d="M36.0647 37.9298C36.0647 37.6438 36.1472 37.4128 36.3122 37.2368C36.4772 37.0498 36.6917 36.9563 36.9557 36.9563C37.2197 36.9563 37.4287 37.0498 37.5827 37.2368C37.7477 37.4128 37.8302 37.6438 37.8302 37.9298C37.8302 38.2048 37.7477 38.4303 37.5827 38.6063C37.4287 38.7713 37.2197 38.8538 36.9557 38.8538C36.6917 38.8538 36.4772 38.7713 36.3122 38.6063C36.1472 38.4303 36.0647 38.2048 36.0647 37.9298ZM38.7377 37.9298C38.7377 37.6438 38.8147 37.4128 38.9687 37.2368C39.1337 37.0498 39.3537 36.9563 39.6287 36.9563C39.8927 36.9563 40.1017 37.0498 40.2557 37.2368C40.4207 37.4128 40.5032 37.6438 40.5032 37.9298C40.5032 38.2048 40.4207 38.4303 40.2557 38.6063C40.1017 38.7713 39.8927 38.8538 39.6287 38.8538C39.3537 38.8538 39.1337 38.7713 38.9687 38.6063C38.8147 38.4303 38.7377 38.2048 38.7377 37.9298ZM40.1402 48.9518H36.4772V48.5393C36.6422 48.4513 36.8127 48.3798 36.9887 48.3248C37.1647 48.2588 37.3572 48.1983 37.5662 48.1433V41.6588L36.4772 41.5268V41.0978C36.7962 40.9658 37.1427 40.8503 37.5167 40.7513C37.8907 40.6523 38.2647 40.5698 38.6387 40.5038H39.0512V48.1433C39.2712 48.1983 39.4692 48.2588 39.6452 48.3248C39.8212 48.3798 39.9862 48.4513 40.1402 48.5393V48.9518Z" fill="#333333"/>
<path d="M49.5093 48.9518H45.8463V48.5393C46.0113 48.4513 46.1818 48.3798 46.3578 48.3248C46.5338 48.2588 46.7263 48.1983 46.9353 48.1433V41.6588L45.8463 41.5268V41.0978C46.1653 40.9658 46.5118 40.8503 46.8858 40.7513C47.2598 40.6523 47.6338 40.5698 48.0078 40.5038H48.4203V48.1433C48.6403 48.1983 48.8383 48.2588 49.0143 48.3248C49.1903 48.3798 49.3553 48.4513 49.5093 48.5393V48.9518ZM46.6218 37.8968C46.6218 37.5998 46.7153 37.3633 46.9023 37.1873C47.1003 37.0113 47.3588 36.9233 47.6778 36.9233C47.9968 36.9233 48.2498 37.0113 48.4368 37.1873C48.6238 37.3633 48.7173 37.5998 48.7173 37.8968C48.7173 38.1938 48.6238 38.4303 48.4368 38.6063C48.2498 38.7713 47.9968 38.8538 47.6778 38.8538C47.3588 38.8538 47.1003 38.7713 46.9023 38.6063C46.7153 38.4303 46.6218 38.1938 46.6218 37.8968Z" fill="#333333"/>
<path d="M57.1782 47.7968C56.9802 48.1818 56.6557 48.5063 56.2047 48.7703C55.7647 49.0233 55.2477 49.1498 54.6537 49.1498C54.0047 49.1498 53.4382 49.0508 52.9542 48.8528C52.4812 48.6438 52.0852 48.3523 51.7662 47.9783C51.4472 47.5933 51.2052 47.1368 51.0402 46.6088C50.8862 46.0698 50.8092 45.4758 50.8092 44.8268C50.8092 43.4298 51.1502 42.3628 51.8322 41.6258C52.5142 40.8778 53.4437 40.5038 54.6207 40.5038C55.1597 40.5038 55.6382 40.5533 56.0562 40.6523C56.4852 40.7403 56.8482 40.8613 57.1452 41.0153C57.1122 41.3783 57.0517 41.7853 56.9637 42.2363C56.8757 42.6873 56.7657 43.0613 56.6337 43.3583H56.1882L55.4952 41.3948C55.4182 41.3398 55.3302 41.3013 55.2312 41.2793C55.1322 41.2463 54.9672 41.2298 54.7362 41.2298C53.9882 41.2298 53.4107 41.5048 53.0037 42.0548C52.5967 42.5938 52.3932 43.5123 52.3932 44.8103C52.3932 45.2283 52.4482 45.6353 52.5582 46.0313C52.6792 46.4273 52.8552 46.7848 53.0862 47.1038C53.3282 47.4118 53.6252 47.6593 53.9772 47.8463C54.3402 48.0333 54.7582 48.1268 55.2312 48.1268C55.6162 48.1268 55.9517 48.0718 56.2377 47.9618C56.5237 47.8518 56.7657 47.7198 56.9637 47.5658L57.1782 47.7968Z" fill="#333333"/>
<path d="M63.7422 48.9518H60.0792V48.5393C60.4202 48.3633 60.7832 48.2313 61.1682 48.1433V41.4278H59.6337L58.9077 43.4078H58.4787C58.4237 42.9348 58.3797 42.4728 58.3467 42.0218C58.3137 41.5598 58.2917 41.1198 58.2807 40.7018H65.5407C65.5297 41.0978 65.5077 41.5323 65.4747 42.0053C65.4527 42.4673 65.4087 42.9348 65.3427 43.4078H64.9137L64.1877 41.4278H62.6532V48.1433C63.1702 48.2753 63.5332 48.4073 63.7422 48.5393V48.9518Z" fill="#333333"/>
<path d="M66.6808 44.8268C66.6808 44.1338 66.7688 43.5233 66.9448 42.9953C67.1318 42.4563 67.3958 42.0053 67.7368 41.6423C68.0778 41.2683 68.4848 40.9878 68.9578 40.8008C69.4418 40.6028 69.9753 40.5038 70.5583 40.5038C71.2403 40.5038 71.8288 40.6083 72.3238 40.8173C72.8188 41.0263 73.2203 41.3233 73.5283 41.7083C73.8473 42.0823 74.0783 42.5333 74.2213 43.0613C74.3753 43.5893 74.4523 44.1778 74.4523 44.8268C74.4523 46.2128 74.1003 47.2798 73.3963 48.0278C72.6923 48.7758 71.7463 49.1498 70.5583 49.1498C69.8983 49.1498 69.3263 49.0508 68.8423 48.8528C68.3583 48.6438 67.9568 48.3523 67.6378 47.9783C67.3188 47.5933 67.0768 47.1368 66.9118 46.6088C66.7578 46.0698 66.6808 45.4758 66.6808 44.8268ZM68.2648 44.8268C68.2648 45.3218 68.3088 45.7893 68.3968 46.2293C68.4958 46.6693 68.6443 47.0543 68.8423 47.3843C69.0513 47.7033 69.3208 47.9563 69.6508 48.1433C69.9808 48.3303 70.3768 48.4238 70.8388 48.4238C71.4328 48.4238 71.9168 48.1323 72.2908 47.5493C72.6758 46.9663 72.8683 46.0588 72.8683 44.8268C72.8683 44.3208 72.8188 43.8533 72.7198 43.4243C72.6318 42.9843 72.4888 42.6048 72.2908 42.2858C72.0928 41.9558 71.8398 41.6973 71.5318 41.5103C71.2238 41.3233 70.8553 41.2298 70.4263 41.2298C69.7773 41.2298 69.2548 41.5213 68.8588 42.1043C68.4628 42.6873 68.2648 43.5948 68.2648 44.8268Z" fill="#333333"/>
<path d="M79.2989 52.2518H75.6359V51.8393C76.0099 51.6633 76.3729 51.5313 76.7249 51.4433V41.6588L75.6359 41.5268V41.0978C75.9879 40.9438 76.3454 40.8228 76.7084 40.7348C77.0824 40.6358 77.4454 40.5588 77.7974 40.5038H78.2099V42.3518H78.2264C78.4464 41.7908 78.7544 41.3453 79.1504 41.0153C79.5464 40.6743 80.0634 40.5038 80.7014 40.5038C81.6804 40.5038 82.4394 40.8283 82.9784 41.4773C83.5174 42.1263 83.7869 43.1823 83.7869 44.6453C83.7869 45.3383 83.6934 45.9653 83.5064 46.5263C83.3304 47.0873 83.0719 47.5603 82.7309 47.9453C82.4009 48.3303 81.9939 48.6273 81.5099 48.8363C81.0369 49.0453 80.5089 49.1498 79.9259 49.1498C79.5189 49.1498 79.1999 49.1223 78.9689 49.0673C78.7379 49.0233 78.4849 48.9408 78.2099 48.8198V51.4433C78.3859 51.4653 78.5619 51.5038 78.7379 51.5588C78.9139 51.6248 79.1009 51.7183 79.2989 51.8393V52.2518ZM80.1734 41.5268C79.6344 41.5268 79.2054 41.6973 78.8864 42.0383C78.5674 42.3793 78.3419 42.8468 78.2099 43.4408V48.0608C78.4079 48.1818 78.6279 48.2753 78.8699 48.3413C79.1229 48.3963 79.4474 48.4238 79.8434 48.4238C80.2064 48.4238 80.5309 48.3303 80.8169 48.1433C81.1139 47.9563 81.3614 47.6923 81.5594 47.3513C81.7684 47.0103 81.9279 46.6143 82.0379 46.1633C82.1479 45.7013 82.2029 45.1953 82.2029 44.6453C82.2029 44.1943 82.1644 43.7818 82.0874 43.4078C82.0214 43.0228 81.9059 42.6928 81.7409 42.4178C81.5869 42.1318 81.3779 41.9118 81.1139 41.7578C80.8609 41.6038 80.5474 41.5268 80.1734 41.5268Z" fill="#333333"/>
<path d="M88.8096 48.9518H85.1466V48.5393C85.3116 48.4513 85.4821 48.3798 85.6581 48.3248C85.8341 48.2588 86.0266 48.1983 86.2356 48.1433V41.6588L85.1466 41.5268V41.0978C85.4656 40.9658 85.8121 40.8503 86.1861 40.7513C86.5601 40.6523 86.9341 40.5698 87.3081 40.5038H87.7206V48.1433C87.9406 48.1983 88.1386 48.2588 88.3146 48.3248C88.4906 48.3798 88.6556 48.4513 88.8096 48.5393V48.9518ZM85.9221 37.8968C85.9221 37.5998 86.0156 37.3633 86.2026 37.1873C86.4006 37.0113 86.6591 36.9233 86.9781 36.9233C87.2971 36.9233 87.5501 37.0113 87.7371 37.1873C87.9241 37.3633 88.0176 37.5998 88.0176 37.8968C88.0176 38.1938 87.9241 38.4303 87.7371 38.6063C87.5501 38.7713 87.2971 38.8538 86.9781 38.8538C86.6591 38.8538 86.4006 38.7713 86.2026 38.6063C86.0156 38.4303 85.9221 38.1938 85.9221 37.8968Z" fill="#333333"/>
<path d="M90.0765 37.9298C90.0765 37.6438 90.159 37.4128 90.324 37.2368C90.489 37.0498 90.7035 36.9563 90.9675 36.9563C91.2315 36.9563 91.4405 37.0498 91.5945 37.2368C91.7595 37.4128 91.842 37.6438 91.842 37.9298C91.842 38.2048 91.7595 38.4303 91.5945 38.6063C91.4405 38.7713 91.2315 38.8538 90.9675 38.8538C90.7035 38.8538 90.489 38.7713 90.324 38.6063C90.159 38.4303 90.0765 38.2048 90.0765 37.9298ZM92.7495 37.9298C92.7495 37.6438 92.8265 37.4128 92.9805 37.2368C93.1455 37.0498 93.3655 36.9563 93.6405 36.9563C93.9045 36.9563 94.1135 37.0498 94.2675 37.2368C94.4325 37.4128 94.515 37.6438 94.515 37.9298C94.515 38.2048 94.4325 38.4303 94.2675 38.6063C94.1135 38.7713 93.9045 38.8538 93.6405 38.8538C93.3655 38.8538 93.1455 38.7713 92.9805 38.6063C92.8265 38.4303 92.7495 38.2048 92.7495 37.9298ZM94.152 48.9518H90.489V48.5393C90.654 48.4513 90.8245 48.3798 91.0005 48.3248C91.1765 48.2588 91.369 48.1983 91.578 48.1433V41.6588L90.489 41.5268V41.0978C90.808 40.9658 91.1545 40.8503 91.5285 40.7513C91.9025 40.6523 92.2765 40.5698 92.6505 40.5038H93.063V48.1433C93.283 48.1983 93.481 48.2588 93.657 48.3248C93.833 48.3798 93.998 48.4513 94.152 48.5393V48.9518Z" fill="#333333"/>
<path d="M33.8631 34.152H25.8711V33.252C26.6871 32.868 27.4791 32.58 28.2471 32.388V11.04L25.8711 10.752V9.81602C26.6391 9.48001 27.4191 9.21602 28.2111 9.02402C29.0271 8.80802 29.8191 8.64001 30.5871 8.52001H31.4871V12.552H31.5231C32.0031 11.328 32.6751 10.356 33.5391 9.63601C34.4031 8.89202 35.5311 8.52001 36.9231 8.52001C39.0591 8.52001 40.7151 9.22801 41.8911 10.644C43.0671 12.06 43.6551 14.364 43.6551 17.556C43.6551 19.068 43.4511 20.436 43.0431 21.66C42.6591 22.884 42.0951 23.916 41.3511 24.756C40.6311 25.596 39.7431 26.244 38.6871 26.7C37.6551 27.156 36.5031 27.384 35.2311 27.384C34.3431 27.384 33.6471 27.324 33.1431 27.204C32.6391 27.108 32.0871 26.928 31.4871 26.664V32.388C31.8711 32.436 32.2551 32.52 32.6391 32.64C33.0231 32.784 33.4311 32.988 33.8631 33.252V34.152ZM35.7711 10.752C34.5951 10.752 33.6591 11.124 32.9631 11.868C32.2671 12.612 31.7751 13.632 31.4871 14.928V25.008C31.9191 25.272 32.3991 25.476 32.9271 25.62C33.4791 25.74 34.1871 25.8 35.0511 25.8C35.8431 25.8 36.5511 25.596 37.1751 25.188C37.8231 24.78 38.3631 24.204 38.7951 23.46C39.2511 22.716 39.5991 21.852 39.8391 20.868C40.0791 19.86 40.1991 18.756 40.1991 17.556C40.1991 16.572 40.1151 15.672 39.9471 14.856C39.8031 14.016 39.5511 13.296 39.1911 12.696C38.8551 12.072 38.3991 11.592 37.8231 11.256C37.2711 10.92 36.5871 10.752 35.7711 10.752Z" fill="#333333"/>
<path d="M55.8738 17.304L61.5618 25.188C61.8978 25.308 62.2218 25.44 62.5338 25.584C62.8698 25.704 63.1818 25.86 63.4698 26.052V26.952H56.0898V26.088C56.4258 25.896 56.7378 25.728 57.0258 25.584C57.3138 25.416 57.6018 25.284 57.8898 25.188L53.8938 19.284L49.8617 25.188C50.1977 25.308 50.5097 25.44 50.7977 25.584C51.0857 25.728 51.3738 25.884 51.6618 26.052V26.952H45.5057V26.052C46.1777 25.644 46.8497 25.356 47.5217 25.188L52.8858 18.024L47.4857 10.752C47.1497 10.632 46.8377 10.512 46.5497 10.392C46.2857 10.248 46.0097 10.08 45.7217 9.88801V8.95202H52.9578V9.85201C52.6698 10.044 52.3818 10.224 52.0938 10.392C51.8298 10.536 51.5298 10.656 51.1938 10.752L54.9378 16.152L58.6098 10.752C57.7938 10.488 57.1938 10.2 56.8098 9.88801V8.95202H62.8218V9.88801C62.3658 10.2 61.6938 10.488 60.8058 10.752L55.8738 17.304Z" fill="#333333"/>
<path d="M73.2817 26.952H65.2897V26.052C65.6497 25.86 66.0218 25.704 66.4058 25.584C66.7897 25.44 67.2097 25.308 67.6657 25.188V11.04L65.2897 10.752V9.81602C65.9857 9.52802 66.7417 9.27601 67.5578 9.06001C68.3738 8.84401 69.1898 8.66401 70.0057 8.52001H70.9058V25.188C71.3857 25.308 71.8177 25.44 72.2017 25.584C72.5857 25.704 72.9458 25.86 73.2817 26.052V26.952ZM66.9817 2.83201C66.9817 2.18401 67.1857 1.66801 67.5937 1.28401C68.0257 0.900009 68.5897 0.708008 69.2857 0.708008C69.9817 0.708008 70.5337 0.900009 70.9417 1.28401C71.3497 1.66801 71.5537 2.18401 71.5537 2.83201C71.5537 3.48001 71.3497 3.99601 70.9417 4.38001C70.5337 4.74001 69.9817 4.92001 69.2857 4.92001C68.5897 4.92001 68.0257 4.74001 67.5937 4.38001C67.1857 3.99601 66.9817 3.48001 66.9817 2.83201Z" fill="#333333"/>
<path d="M91.9579 21.696C91.9579 22.656 91.7419 23.484 91.3099 24.18C90.8779 24.852 90.2899 25.404 89.5459 25.836C88.8259 26.268 87.9859 26.592 87.0259 26.808C86.0659 27 85.0579 27.096 84.0019 27.096C83.2339 27.096 82.6219 27.084 82.1659 27.06C81.7099 27.06 81.3259 27.048 81.0139 27.024C80.7019 27 80.4379 26.976 80.2219 26.952C80.0059 26.952 79.7659 26.952 79.5019 26.952H76.0459V26.052C76.7899 25.668 77.5819 25.38 78.4219 25.188V10.752C77.5099 10.584 76.7179 10.296 76.0459 9.88801V8.95202H79.2859C79.8619 8.95202 80.3539 8.95202 80.7619 8.95202C81.1699 8.92802 81.5539 8.90401 81.9139 8.88001C82.2739 8.85601 82.6339 8.84402 82.9939 8.84402C83.3539 8.82001 83.7499 8.80802 84.1819 8.80802C86.2939 8.80802 87.9379 9.13202 89.1139 9.78002C90.2899 10.404 90.8779 11.508 90.8779 13.092C90.8779 13.668 90.7579 14.184 90.5179 14.64C90.2779 15.096 89.9659 15.492 89.5819 15.828C89.1979 16.164 88.7659 16.452 88.2859 16.692C87.8059 16.908 87.3379 17.064 86.8819 17.16C87.5539 17.208 88.1899 17.34 88.7899 17.556C89.4139 17.772 89.9539 18.072 90.4099 18.456C90.8899 18.816 91.2619 19.272 91.5259 19.824C91.8139 20.352 91.9579 20.976 91.9579 21.696ZM81.6619 25.404C81.9979 25.476 82.4179 25.512 82.9219 25.512C83.4499 25.512 83.8819 25.512 84.2179 25.512C85.6339 25.512 86.6899 25.212 87.3859 24.612C88.0819 23.988 88.4299 23.112 88.4299 21.984C88.4299 20.808 88.0099 19.932 87.1699 19.356C86.3299 18.756 85.2499 18.456 83.9299 18.456H81.6619V25.404ZM81.6619 17.376L85.6579 17.016C86.0899 16.8 86.5219 16.404 86.9539 15.828C87.4099 15.228 87.6379 14.448 87.6379 13.488C87.6379 12.312 87.2779 11.508 86.5579 11.076C85.8619 10.62 84.8299 10.392 83.4619 10.392C83.1979 10.392 82.8979 10.404 82.5619 10.428C82.2259 10.428 81.9259 10.464 81.6619 10.536V17.376Z" fill="#333333"/>
<path d="M8.17169 26.34H0.179688V25.296C1.04369 24.912 1.90769 24.624 2.77169 24.432L11.8797 0.708008H12.9237L22.0317 24.432C22.5117 24.528 22.9797 24.636 23.4357 24.756C23.9157 24.876 24.3597 25.056 24.7677 25.296V26.34H15.5517V25.296C16.0317 25.104 16.5237 24.936 17.0277 24.792C17.5317 24.648 18.0237 24.528 18.5037 24.432L16.0557 17.844H7.45169L5.07569 24.432C6.08369 24.576 7.11569 24.864 8.17169 25.296V26.34ZM8.17169 15.972H15.4437L12.5997 8.34001L11.9157 5.24401H11.8437L10.9437 8.41201L8.17169 15.972Z" fill="#9A0000"/>
</svg>
