<svg width="18" height="18" viewBox="0 0 18 18" fill="none" xmlns="http://www.w3.org/2000/svg">
<path d="M17.3672 8.58662L8.5125 0.901465C8.44453 0.842871 8.35781 0.810059 8.26641 0.810059H6.19219C6.01875 0.810059 5.93906 1.02568 6.07031 1.13818L14.2781 8.26318H0.5625C0.459375 8.26318 0.375 8.34756 0.375 8.45068V9.85693C0.375 9.96006 0.459375 10.0444 0.5625 10.0444H14.2758L6.06797 17.1694C5.93672 17.2843 6.01641 17.4976 6.18984 17.4976H8.33438C8.37891 17.4976 8.42344 17.4812 8.45625 17.4507L17.3672 9.721C17.4483 9.65044 17.5134 9.5633 17.558 9.46545C17.6025 9.36761 17.6256 9.26133 17.6256 9.15381C17.6256 9.04628 17.6025 8.94001 17.558 8.84217C17.5134 8.74432 17.4483 8.65718 17.3672 8.58662Z" fill="#F2F2F2"/>
</svg>
