<svg width="23" height="23" viewBox="0 0 23 23" fill="none" xmlns="http://www.w3.org/2000/svg">
<path d="M9.66732 19.0006C11.7381 19.0002 13.7493 18.307 15.3805 17.0313L20.5092 22.16L22.1588 20.5103L17.0302 15.3816C18.3065 13.7503 19.0002 11.7387 19.0007 9.66732C19.0007 4.52115 14.8135 0.333984 9.66732 0.333984C4.52115 0.333984 0.333984 4.52115 0.333984 9.66732C0.333984 14.8135 4.52115 19.0006 9.66732 19.0006ZM9.66732 2.66732C13.5278 2.66732 16.6673 5.80682 16.6673 9.66732C16.6673 13.5278 13.5278 16.6673 9.66732 16.6673C5.80682 16.6673 2.66732 13.5278 2.66732 9.66732C2.66732 5.80682 5.80682 2.66732 9.66732 2.66732Z" fill="#F2F2F2"/>
</svg>
